<svg xmlns="http://www.w3.org/2000/svg" xmlns:xlink="http://www.w3.org/1999/xlink" width="1920" height="1080" viewBox="0 0 1920 1080"><defs><clipPath id="a"><rect width="1920" height="1080" transform="translate(4000 -14)" fill="#fff" stroke="#707070" stroke-width="1"/></clipPath><linearGradient id="b" x1="0.868" y1="0.959" x2="0.053" y2="-0.057" gradientUnits="objectBoundingBox"><stop offset="0" stop-color="#45108a"/><stop offset="0.02" stop-color="#45108a"/><stop offset="1" stop-color="#12054e"/><stop offset="1" stop-color="#10054d"/></linearGradient><radialGradient id="c" cx="0.5" cy="0.5" r="0.5" gradientUnits="objectBoundingBox"><stop offset="0.086" stop-color="#1bb0d4"/><stop offset="0.098" stop-color="#1b88b4"/><stop offset="0.126" stop-color="#1b2b69"/><stop offset="0.159" stop-color="#162357"/><stop offset="0.223" stop-color="#0f183c"/><stop offset="0.297" stop-color="#090f26"/><stop offset="0.381" stop-color="#050814"/><stop offset="0.485" stop-color="#020308"/><stop offset="0.628" stop-color="#000001"/><stop offset="1"/></radialGradient><radialGradient id="d" cx="0.5" cy="0.5" r="0.5" gradientUnits="objectBoundingBox"><stop offset="0.086" stop-color="#2e66bf"/><stop offset="0.126" stop-color="#1b2b69"/><stop offset="0.159" stop-color="#162357"/><stop offset="0.223" stop-color="#0f183c"/><stop offset="0.297" stop-color="#090f26"/><stop offset="0.381" stop-color="#050814"/><stop offset="0.485" stop-color="#020308"/><stop offset="0.628" stop-color="#000001"/><stop offset="1"/></radialGradient><radialGradient id="e" cx="0.5" cy="0.5" gradientTransform="translate(0)" xlink:href="#d"/><radialGradient id="h" cx="0.363" cy="0.484" r="1.003" gradientTransform="matrix(-0.618, 0, 0, 1, 0.639, 0)" gradientUnits="objectBoundingBox"><stop offset="0" stop-color="#363885"/><stop offset="0.047" stop-color="#382879"/><stop offset="0.125" stop-color="#3a156a"/><stop offset="0.204" stop-color="#3c0961"/><stop offset="0.288" stop-color="#3d065f"/><stop offset="0.315" stop-color="#360965"/><stop offset="0.383" stop-color="#2a0f6f"/><stop offset="0.455" stop-color="#271273"/><stop offset="0.484" stop-color="#2d0e6c"/><stop offset="0.558" stop-color="#390862"/><stop offset="0.636" stop-color="#3d065f"/><stop offset="0.772" stop-color="#220336"/><stop offset="0.922" stop-color="#09000f"/><stop offset="1"/></radialGradient><radialGradient id="i" cx="0.379" cy="0.579" r="0.662" gradientTransform="matrix(-0.596, 0, 0, 1, 0.654, 0)" gradientUnits="objectBoundingBox"><stop offset="0.015" stop-color="#43e8e1"/><stop offset="0.03" stop-color="#42e2de"/><stop offset="0.048" stop-color="#41d1d8"/><stop offset="0.07" stop-color="#3eb6ce"/><stop offset="0.093" stop-color="#3b90c0"/><stop offset="0.117" stop-color="#3760ae"/><stop offset="0.121" stop-color="#3759ac"/><stop offset="0.133" stop-color="#386ab2"/><stop offset="0.18" stop-color="#3eadcb"/><stop offset="0.215" stop-color="#41d7db"/><stop offset="0.232" stop-color="#43e8e1"/><stop offset="0.255" stop-color="#3dd4cf"/><stop offset="0.302" stop-color="#2da0a1"/><stop offset="0.354" stop-color="#1b6269"/><stop offset="0.356" stop-color="#1d6c71"/><stop offset="0.364" stop-color="#278d8f"/><stop offset="0.373" stop-color="#30a9a9"/><stop offset="0.383" stop-color="#37c0bd"/><stop offset="0.394" stop-color="#3cd2cd"/><stop offset="0.408" stop-color="#40ded8"/><stop offset="0.426" stop-color="#42e5df"/><stop offset="0.47" stop-color="#43e8e1"/><stop offset="0.471" stop-color="#41e2db"/><stop offset="0.479" stop-color="#35b8b3"/><stop offset="0.488" stop-color="#2a9290"/><stop offset="0.497" stop-color="#217372"/><stop offset="0.507" stop-color="#195a5a"/><stop offset="0.518" stop-color="#144648"/><stop offset="0.531" stop-color="#10383a"/><stop offset="0.547" stop-color="#0d3033"/><stop offset="0.576" stop-color="#0d2e31"/><stop offset="0.581" stop-color="#0f4446"/><stop offset="0.591" stop-color="#126968"/><stop offset="0.601" stop-color="#158784"/><stop offset="0.612" stop-color="#179f9a"/><stop offset="0.623" stop-color="#18afa9"/><stop offset="0.636" stop-color="#19b9b3"/><stop offset="0.652" stop-color="#1abdb6"/><stop offset="0.818" stop-color="#020708"/><stop offset="1"/></radialGradient><radialGradient id="j" cx="0.611" cy="0.786" r="0.662" gradientTransform="matrix(-0.596, 0, 0, 1, 0.93, 0)" gradientUnits="objectBoundingBox"><stop offset="0" stop-color="#3d065f"/><stop offset="0.092" stop-color="#330550"/><stop offset="0.352" stop-color="#1d022d"/><stop offset="0.598" stop-color="#0d0114"/><stop offset="0.821" stop-color="#030005"/><stop offset="1"/></radialGradient><radialGradient id="k" cx="0.5" cy="0.5" r="0.5" gradientTransform="matrix(-1, 0, 0, 1, 1, 0)" xlink:href="#c"/><radialGradient id="l" cx="0.5" cy="0.5" r="0.5" gradientTransform="matrix(-1, 0, 0, 1, 1, 0)" xlink:href="#c"/><radialGradient id="m" cx="0.5" cy="0.5" r="0.5" gradientTransform="matrix(0.923, -0.385, -0.385, -0.923, 0.231, 1.154)" xlink:href="#c"/><radialGradient id="n" cx="0.5" cy="0.5" r="0.5" gradientTransform="matrix(-1, 0, 0, 1, 1, 0)" xlink:href="#c"/><radialGradient id="o" cx="0.5" cy="0.5" r="0.5" gradientTransform="matrix(-1, 0, 0, 1, 1, 0)" xlink:href="#c"/><radialGradient id="q" cx="0.5" cy="0.5" r="0.5" gradientTransform="matrix(-1, 0, 0, 1, 1, 0)" xlink:href="#c"/><radialGradient id="r" cx="0.5" cy="0.5" r="0.5" gradientTransform="matrix(-1, 0, 0, 1, 1, 0)" xlink:href="#c"/><radialGradient id="s" cx="0.5" cy="0.5" r="0.5" gradientTransform="matrix(0.148, -0.989, -0.989, -0.148, 0.92, 1.069)" xlink:href="#c"/><radialGradient id="t" cx="0.5" cy="0.5" r="0.5" gradientTransform="matrix(-1, 0, 0, 1, 1, 0)" xlink:href="#c"/><radialGradient id="v" cx="0.5" cy="0.5" gradientTransform="matrix(-1, 0, 0, 1, 1, 0)" xlink:href="#d"/><radialGradient id="w" cx="0.5" cy="0.5" gradientTransform="matrix(-1, 0, 0, 1, 1, 0)" xlink:href="#d"/><radialGradient id="x" cx="0.5" cy="0.5" gradientTransform="matrix(-1, 0, 0, 1, 1, 0)" xlink:href="#d"/><radialGradient id="y" cx="0.5" cy="0.5" gradientTransform="matrix(-1, 0, 0, 1, 1, 0)" xlink:href="#d"/><radialGradient id="z" cx="0.5" cy="0.5" gradientTransform="matrix(-1, 0, 0, 1, 1, 0)" xlink:href="#d"/><radialGradient id="aa" cx="0.5" cy="0.5" gradientTransform="matrix(-1, 0, 0, 1, 1, 0)" xlink:href="#d"/><radialGradient id="ab" cx="0.5" cy="0.5" gradientTransform="matrix(-1, 0, 0, 1, 1, 0)" xlink:href="#d"/><filter id="ae" x="894.229" y="-42" width="1068.64" height="1164" filterUnits="userSpaceOnUse"><feOffset input="SourceAlpha"/><feGaussianBlur stdDeviation="14" result="af"/><feFlood flood-opacity="0.09"/><feComposite operator="in" in2="af"/><feComposite in="SourceGraphic"/></filter></defs><g transform="translate(-4000 14)"><g clip-path="url(#a)"><g transform="translate(4000 -14)"><rect width="1920.136" height="1080.052" transform="translate(-0.217 -0.043)" fill="url(#b)"/><circle cx="25.873" cy="25.873" r="25.873" transform="translate(1089.348 878.176)" fill="url(#c)" style="mix-blend-mode:screen;isolation:isolate"/><circle cx="18.326" cy="18.326" r="18.326" transform="translate(975.086 904.318)" fill="url(#d)" style="mix-blend-mode:color-dodge;isolation:isolate"/><circle cx="18.326" cy="18.326" r="18.326" transform="translate(1072.188 695.311)" fill="url(#e)" style="mix-blend-mode:color-dodge;isolation:isolate"/><circle cx="18.326" cy="18.326" r="18.326" transform="translate(1024.279 799.586)" fill="url(#d)" style="mix-blend-mode:color-dodge;isolation:isolate"/><circle cx="18.326" cy="18.326" r="18.326" transform="translate(1125.169 946.266)" fill="url(#d)" style="mix-blend-mode:color-dodge;isolation:isolate"/><g transform="translate(0.001 190.078)"><path d="M145.56,803.017l47.313,7.241,44.014-25.411-15.85-34.53-29.884-4.572-29.845-4.569-15.748,9.092V749.19l14.786-8.535L145.56,708.448V704.97l43.265-24.98-7.91-17.229-7.921-17.254-27.435-4.2v-.771l27.753,4.246L217.3,619.389l-15.85-34.53-29.884-4.572-26-3.98v-.751l26.329,4.029,29.845,4.566,43.9-25.342L229.8,524.327l-59.806-9.152L145.56,529.28V528.2l23.526-13.584-15.83-34.483-7.7-1.177v-.88l8.162,1.248,43.836-25.309-15.85-34.53-29.884-4.572-6.264-.96v-.749l6.593,1.009L182,418.782l43.893-25.342-15.83-34.486L150.253,349.8l-4.693,2.71v-1.078l3.788-2.186L145.56,341v-3.242L150.719,349l59.806,9.149,43.838-25.309-15.852-34.53-29.884-4.572L178.7,289.157,145.56,308.292v-1.023l32.259-18.625-16.047-34.955L206.784,227.7l60.546,9.265,43.835-25.309L295.119,176.7l45.012-25.989,60.546,9.265,43.888-25.339L428.52,99.685,473.532,73.7l61.243,9.372L550.811,118l60.505,9.259,16.039,34.933,60.505,9.259L703.9,206.385l60.505,9.259,16.039,34.933,60.505,9.259,16.036,34.933,60.505,9.259,16.039,34.933,60.505,9.259,16.036,34.933,60.508,9.259,16.036,34.933,60.505,9.259,16.036,34.933,60.508,9.259,16.036,34.933,60.505,9.259,16.036,34.933,60.508,9.259,16.036,34.933,60.505,9.259,16.231,35.358-44.5,25.693,16.047,34.955-45.012,25.989-60.546-9.267-43.89,25.342,16.05,34.955-45.012,25.989-60.546-9.267-43.838,25.309,16.05,34.958-45.012,25.986-60.546-9.265-21.244,12.265h-1.769L1067.88,879.6l-15.85-34.53-59.808-9.152-43.835,25.309,14.3,31.148H961.35l-14.215-30.964-29.884-4.572-29.845-4.567-43.9,25.342,6.777,14.761H848.8l-6.662-14.509-59.806-9.152L741.35,892.372h-1.868l41.946-24.217L765.6,833.671l-59.808-9.152-43.836,25.309,15.852,34.53,29.884,4.572,22.5,3.442h-4.9l-17.92-2.74-29.843-4.569-12.66,7.309h-1.87l13.565-7.83-15.85-34.53-29.884-4.575-29.845-4.566L556.93,866.3l7.913,17.229,4.059,8.842h-1.3l-3.974-8.653-7.921-17.251L495.9,857.315l-43.984,25.394,4.435,9.662h-1.336l-4.353-9.479-29.884-4.572-29.845-4.569-32.248,18.62h-1.87l33.156-19.141-15.85-34.53-29.884-4.575-29.845-4.567-44.044,25.43,15.841,34.505,18.8,2.877h-4.9l-14.923-2.282-16.036-34.933L208.621,845.9l-16.036-34.933-47.025-7.2Zm92.58-18.354,29.884,4.572,29.842,4.566,44.044-25.427L334,751.142l-7.921-17.251-59.806-9.152-43.986,25.394ZM699.02,563.278,714.87,597.8l29.884,4.575,29.845,4.566L818.492,581.6l-15.83-34.486-59.806-9.149Zm42.93-25.866-15.83-34.486-59.806-9.149-43.838,25.309,15.85,34.527,29.886,4.575,29.843,4.566Zm-44.184,26.047-29.884-4.572-29.845-4.566-43.893,25.342,15.83,34.483,59.809,9.152,43.835-25.309ZM592.774,579.914l-59.806-9.152L489.13,596.071l15.852,34.53,29.884,4.575,29.842,4.567L608.6,614.4Zm-59.34-9.958,59.806,9.149L637.075,553.8l-15.85-34.53-29.884-4.572L561.5,510.128,517.6,535.47Zm28.351-60.535L591.668,514l29.845,4.566,43.9-25.342-15.833-34.486-59.806-9.152-43.838,25.312Zm27.081-60.393-15.831-34.486-59.806-9.149L469.391,430.7l15.852,34.53,29.884,4.572,29.845,4.566Zm-75.173-44.444,59.809,9.152,43.835-25.309L601.484,353.9,571.6,349.325l-29.845-4.569-43.9,25.345Zm60.714,9.706,15.83,34.486,59.806,9.152,43.838-25.309-15.852-34.53-29.884-4.575L618.3,388.948Zm76.541,44.192,15.83,34.486,59.809,9.152,43.835-25.309-15.85-34.53-29.886-4.575-29.843-4.567Zm76.544,44.192,15.83,34.486,59.806,9.152L846.966,521l-15.852-34.53L801.23,481.9l-29.845-4.566Zm76.541,44.192,15.83,34.486,59.809,9.152,43.835-25.309-15.85-34.53-29.884-4.575-29.845-4.567Zm76.544,44.192,15.83,34.486,59.806,9.152,43.838-25.309L984.2,574.857l-29.884-4.575-29.845-4.566Zm76.541,44.192,15.83,34.486,59.809,9.149,43.835-25.309-15.85-34.527-29.886-4.575-29.843-4.566Zm-1.371.252-59.806-9.149-43.836,25.309,15.85,34.527,29.884,4.575,29.845,4.566,43.893-25.342ZM895.036,625.8,879.206,591.31,819.4,582.158,775.562,607.47,791.414,642l29.884,4.575,29.843,4.567ZM774.311,607.651l-29.886-4.572-29.843-4.566-43.9,25.342,15.833,34.483,59.806,9.152,43.835-25.309Zm-105,16.456-59.806-9.152-43.835,25.309,15.85,34.53,29.884,4.572,29.845,4.569,43.893-25.342ZM564.42,640.447l-29.884-4.572-29.845-4.567L460.8,656.651l15.831,34.483,59.808,9.152,43.836-25.309Zm-60.692-9.662-15.85-34.53L458,591.683l-29.845-4.566-43.9,25.342,15.833,34.483,59.806,9.152Zm-75.291-44.376,29.884,4.575,29.845,4.566,43.893-25.342-15.83-34.486-59.806-9.152-43.835,25.309Zm28.452-60.648,59.806,9.152L560.534,509.6l-15.852-34.53L514.8,470.5l-29.845-4.566-43.893,25.342Zm27.1-60.349-15.85-34.527-29.884-4.575-29.845-4.567-43.893,25.342,15.831,34.483,59.806,9.152ZM408.7,421.039l29.884,4.572,29.845,4.566,43.893-25.342L496.491,370.35,436.685,361.2,392.847,386.51Zm28.452-60.648,59.806,9.152L540.8,344.235,524.943,309.7l-29.884-4.575-29.845-4.567-43.893,25.342ZM465.5,299.859l29.884,4.572L525.234,309l43.945-25.372-15.83-34.483-59.806-9.152-43.89,25.339Zm60.692,9.662,15.85,34.53,29.884,4.572,29.845,4.566,43.948-25.372-15.83-34.483-59.809-9.152Zm76.541,44.192,15.852,34.53,29.884,4.572,29.845,4.567,43.945-25.372-15.83-34.486-59.806-9.149Zm76.541,44.192,15.852,34.53,29.884,4.572,29.845,4.566L798.808,416.2l-15.83-34.483-59.809-9.155ZM755.823,442.1l15.852,34.53,29.884,4.572,29.843,4.566,43.948-25.372-15.83-34.486-59.806-9.149Zm76.544,44.192,15.85,34.53,29.884,4.572,29.845,4.566,43.948-25.372L936.063,470.1l-59.809-9.152Zm76.541,44.192,15.852,34.53,29.884,4.572,29.843,4.566,43.948-25.372-15.83-34.483L952.8,505.139Zm76.544,44.192,15.85,34.53,29.884,4.572,29.845,4.566,43.948-25.372-15.83-34.486-59.809-9.149Zm76.541,44.192,15.852,34.527,29.884,4.575,29.843,4.567,43.948-25.372-15.831-34.486-59.806-9.149Zm75.291,44.373-29.884-4.572-29.845-4.567-43.893,25.342,15.83,34.483,59.806,9.152,43.838-25.306Zm-104.993,16.456-59.809-9.152-43.835,25.309,15.852,34.53,29.884,4.575,29.843,4.567,43.9-25.342ZM927.4,696.035l-29.886-4.572L867.667,686.9l-43.9,25.342L839.6,746.721l59.809,9.152,43.835-25.309ZM866.7,686.372l-15.852-34.53-29.884-4.572L791.123,642.7,747.23,668.046l15.83,34.483,59.806,9.152ZM745.859,668.3l-59.809-9.152-43.835,25.309,15.852,34.53,29.884,4.572,29.843,4.569,43.9-25.345ZM640.964,684.639l-29.884-4.572L581.235,675.5l-43.893,25.342,15.828,34.483,59.809,9.152,43.835-25.309ZM535.971,701.095l-59.809-9.152-43.835,25.309,15.85,34.53,29.884,4.572,29.845,4.567,43.9-25.342Zm-60.714-9.709L459.427,656.9l-59.806-9.152L355.783,673.06l15.852,34.53,29.884,4.572,29.843,4.566ZM354.532,673.243l-29.884-4.575L294.8,664.1l-44.044,25.427,7.91,17.229,7.923,17.254,59.806,9.152,43.984-25.394ZM295.091,663.4l29.884,4.572,29.845,4.566,43.9-25.342-15.833-34.483-59.806-9.152-43.836,25.309Zm28.452-60.648,59.806,9.152,43.838-25.309-15.852-34.53-29.884-4.572-29.845-4.566-43.893,25.342ZM351.9,542.217l29.884,4.572,29.845,4.569,43.893-25.342-15.83-34.486-59.806-9.152-43.838,25.309Zm27.078-60.393-15.83-34.486-59.806-9.152L259.5,463.5l15.85,34.53,29.884,4.575,29.845,4.566ZM303.8,437.38l59.806,9.149,43.838-25.309L391.6,386.693l-29.884-4.575-29.845-4.566-43.893,25.342Zm28.353-60.533,29.884,4.572,29.845,4.567,43.893-25.342-15.831-34.483-59.806-9.152-43.838,25.309ZM360.607,316.2l59.808,9.152,43.836-25.309-15.85-34.53-29.884-4.575-29.845-4.566-43.9,25.342Zm28.353-60.533,29.884,4.572,29.845,4.566,43.948-25.372-15.83-34.486L417,195.8l-43.888,25.339Zm104.993-16.456,59.809,9.152,43.89-25.339L581.8,188.494l-29.884-4.575-29.845-4.566-43.948,25.372Zm60.714,9.709L570.5,283.4l59.806,9.152,43.89-25.339-15.85-34.53-29.886-4.572-29.843-4.569Zm76.541,44.192L647.039,327.6l59.808,9.152,43.89-25.339-15.852-34.53L705,272.3l-29.845-4.566ZM707.753,337.3l15.831,34.486,59.806,9.152,43.89-25.339-15.85-34.53L781.543,316.5,751.7,311.929ZM784.294,381.5l15.83,34.483,59.809,9.152,43.89-25.339-15.852-34.53-29.884-4.575-29.845-4.566Zm76.544,44.192,15.83,34.483,59.806,9.152,43.89-25.339-15.852-34.53-29.884-4.575-29.845-4.566Zm76.541,44.189,15.831,34.486,59.808,9.152,43.888-25.339-15.85-34.53-29.884-4.575-29.845-4.566Zm76.544,44.195,15.831,34.483,59.806,9.152,43.89-25.339-15.852-34.53-29.884-4.575-29.843-4.566Zm76.541,44.192,15.83,34.483L1166.1,601.9l43.888-25.339-15.85-34.53-29.884-4.575-29.845-4.566Zm76.544,44.192,15.83,34.483,59.806,9.152,43.89-25.339-15.852-34.53-29.884-4.575-29.843-4.567Zm76.541,44.189,15.83,34.486,59.809,9.152,43.89-25.342-15.852-34.53-29.884-4.572-29.845-4.567Zm-1.317.222-59.808-9.149-43.89,25.339,15.852,34.527,29.884,4.575,29.845,4.566,43.948-25.372Zm-28.408,60.563-29.884-4.572-29.843-4.566-43.9,25.342,15.83,34.486,59.809,9.152,43.836-25.309Zm-104.994,16.456-59.806-9.152-43.838,25.312,15.852,34.527,29.884,4.575,29.845,4.567,43.893-25.342Zm-104.895,16.341-29.884-4.572-29.845-4.566L900.316,756.43l15.83,34.483,59.806,9.152,43.838-25.309ZM898.944,756.682l-59.809-9.152L795.3,772.839l15.852,34.53,29.884,4.572,29.843,4.567,43.9-25.342Zm-60.714-9.706L822.4,712.49l-59.806-9.152-43.835,25.309,15.85,34.53,29.884,4.572,29.845,4.569ZM717.506,728.831l-29.884-4.572-29.843-4.567-43.9,25.342,15.83,34.483,59.809,9.152,43.835-25.309ZM612.512,745.287,552.7,736.135l-43.835,25.309,15.852,34.53,29.884,4.572,29.843,4.567,43.9-25.342ZM507.618,761.627l-29.884-4.572-29.845-4.569-44.044,25.43,7.912,17.229,7.918,17.254,59.808,9.152,43.984-25.394Zm-60.692-9.662-15.852-34.53-29.884-4.572-29.845-4.569L327.3,733.724l7.91,17.229,7.921,17.254,59.806,9.152ZM145.744,705.941l15.852,34.53,29.884,4.572,29.845,4.569,44.044-25.43-7.912-17.232L249.536,689.7l-59.806-9.152Zm28.474-60.6,7.91,17.229,7.921,17.254,59.806,9.152,43.986-25.394-15.852-34.53L248.1,624.479l-29.845-4.569ZM202.7,584.676l15.853,34.53,29.884,4.572,29.845,4.569L322.172,603l-15.83-34.483-59.806-9.152ZM247,558.558l59.809,9.152L350.643,542.4l-15.85-34.53L304.91,503.3l-29.845-4.567-43.9,25.342Zm-92.372-78.675,15.83,34.483,59.806,9.152L274.1,498.209l-15.853-34.53-29.884-4.572-29.845-4.566ZM182.959,419.3l15.852,34.53,29.884,4.575,29.845,4.566,43.893-25.342L286.6,403.146,226.8,393.994Zm28.471-60.6,15.833,34.486,59.806,9.152L330.9,377.031l-15.85-34.53-29.884-4.575-29.845-4.566Zm44.184-26.047,29.884,4.572,29.845,4.566,43.893-25.342-15.831-34.483L283.6,272.816l-43.836,25.309ZM266.8,237.637l-59.644-9.127L163.171,253.9l15.861,34.552,29.925,4.58L238.8,297.6l43.893-25.342Zm1.415-.159,15.853,34.53,59.806,9.152,43.838-25.309-15.852-34.53-29.884-4.572-29.922-4.58Zm132.006-76.818L340.5,151.521l-43.984,25.394,15.861,34.554,29.925,4.577,29.845,4.569,43.945-25.375Zm1.341-.17,15.853,34.53,59.806,9.152,43.89-25.339-15.85-34.53-29.886-4.572-29.922-4.58ZM533.747,83.66,473.9,74.5,429.916,99.9l15.863,34.552,29.922,4.577,29.845,4.566,44.041-25.427Zm76.544,44.192-59.767-9.144-44.014,25.41,15.85,34.53,29.886,4.572,29.843,4.566,44.044-25.427Zm76.544,44.192L627.067,162.9l-44.014,25.41,15.85,34.53,29.884,4.572,29.845,4.566,44.041-25.427Zm76.542,44.192-59.768-9.147L659.595,232.5l15.852,34.53,29.884,4.572,29.842,4.566,44.044-25.427Zm76.544,44.192-59.77-9.144-44.014,25.41,15.852,34.53,29.884,4.572,29.845,4.566,44.041-25.427Zm76.541,44.192-59.767-9.144L812.68,320.887l15.852,34.53,29.881,4.572,29.845,4.566L932.3,339.128ZM993,348.812l-59.768-9.144-44.014,25.41,15.852,34.53,29.884,4.572,29.845,4.566,44.041-25.427ZM1069.547,393l-59.768-9.144-44.014,25.411,15.852,34.53,29.884,4.572,29.843,4.566,44.044-25.427Zm76.541,44.192-59.767-9.147-44.014,25.413,15.852,34.53,29.884,4.572,29.845,4.566L1161.93,471.7Zm76.544,44.192-59.767-9.147-44.014,25.413,15.85,34.53,29.884,4.572,29.845,4.566,44.044-25.427Zm76.541,44.192-59.767-9.144-44.014,25.411,15.852,34.53,29.884,4.572,29.845,4.566,44.041-25.427Zm76.544,44.192-59.767-9.147-44.014,25.413,15.85,34.53,29.884,4.572,29.845,4.566,44.044-25.427Zm92.4,78.744-15.861-34.552-59.77-9.147-44.014,25.413,15.852,34.53,29.884,4.572,29.922,4.577Zm-132.154,76.906,59.718,9.136,43.984-25.394-15.861-34.552-29.925-4.58-29.845-4.566-43.945,25.372Zm-1.341.167-15.852-34.53-59.806-9.152-43.89,25.342,15.852,34.53,29.884,4.572,29.922,4.577Zm-131.986,76.859,59.644,9.128,43.986-25.394-15.863-34.552-29.922-4.58-29.845-4.566-43.893,25.342Zm-1.415.159-15.85-34.53-59.809-9.152-43.835,25.309,15.852,34.53,29.884,4.575,29.922,4.577Zm-131.932,76.829,59.644,9.128,43.986-25.394-15.863-34.552-29.922-4.58-29.845-4.566L1053.4,844.814Zm-76.607-44.332,59.809,9.152,43.835-25.309-15.852-34.53-29.884-4.572-29.845-4.567-43.893,25.342ZM887.694,851.561l29.884,4.572,29.845,4.569,43.893-25.342-15.83-34.486-59.806-9.152-43.835,25.309ZM782.8,867.9l59.806,9.152,43.838-25.309-15.852-34.53-29.884-4.572-29.843-4.569-43.9,25.345ZM706.255,823.71l59.808,9.152L809.9,807.553l-15.85-34.53-29.884-4.572-29.845-4.567-43.9,25.342ZM601.262,840.166l29.884,4.572,29.845,4.566,43.893-25.342-15.83-34.483-59.806-9.152-43.835,25.309ZM496.219,856.591l59.806,9.152,43.986-25.394-15.852-34.53-29.884-4.575-29.843-4.564-44.044,25.427,7.91,17.229ZM391.226,873.047l29.884,4.572,29.843,4.566L495,856.758l-7.91-17.232-7.921-17.251-59.806-9.152-43.986,25.394Zm-76.544-44.192,29.884,4.572,29.845,4.566,44.044-25.427-7.913-17.232-7.921-17.251-59.806-9.152-43.984,25.394ZM209.65,845.3l59.767,9.147,44.014-25.41-15.852-34.53L267.7,789.934,237.85,785.37,193.808,810.8Z" transform="translate(-65.741 -73.696)" opacity="0.7" fill="url(#h)" style="mix-blend-mode:color-dodge;isolation:isolate"/><path d="M165.754,806.493l11.98,26.1,59.767,9.144,44.014-25.41-15.85-34.53-29.887-4.572-29.843-4.567-40.182,23.2v-1.078l39.217-22.643-15.85-34.53-23.367-3.576v-.749l23.655,3.62,44.044-25.43-7.91-17.229-7.921-17.254-51.869-7.937v-.771l52.187,7.984,43.984-25.394-15.853-34.53-29.884-4.572L186.346,607.2l-20.592,11.889v-1.081l19.629-11.333-15.852-34.53-3.777-.579v-.749l4.067.623L213.714,546.1l-15.831-34.486-32.13-4.915v-.88l32.6,4.989L242.186,485.5l-15.85-34.527-29.884-4.575L166.6,441.828l-.85.491v-3.686l1.141,2.49,29.884,4.572,29.845,4.567,43.893-25.342-15.83-34.486-59.806-9.149L165.754,398.1v-1.078l28.222-16.294-15.9-34.623-12.325-1.887v-.751l12.857,1.966,43.836-25.306L206.4,285.168l45.012-25.986,60.544,9.265,43.838-25.309-16.047-34.955,45.012-25.989,60.546,9.265,43.888-25.339-16.047-34.955,45.012-25.989,61.246,9.372,16.036,34.933,60.505,9.259,16.039,34.936,60.505,9.256,16.036,34.933,60.505,9.259,16.039,34.933,60.505,9.259,16.036,34.933,60.505,9.259,16.039,34.933,60.505,9.259,16.036,34.933,60.505,9.259,16.036,34.933,60.508,9.259,16.036,34.933,60.505,9.259,16.036,34.933,60.508,9.259,16.036,34.933,60.505,9.259,16.036,34.933,60.508,9.259,16.231,35.361-44.5,25.69,16.047,34.955-45.012,25.989-60.546-9.265-43.89,25.339,16.047,34.955-45.012,25.989L1246.74,834.6,1202.9,859.909l16.047,34.955-24.815,14.328h-1.769l25.188-14.541L1201.69,860.1l-29.922-4.58-29.845-4.567-43.893,25.342,15.1,32.9h-1.486l-14.986-32.646-59.808-9.152L993.014,892.7l7.57,16.489h-1.336l-7.487-16.3-29.884-4.572-29.845-4.566L888.138,909.09l.047.1h-2.4l-58.824-9-15.589,9H809.5l16.555-9.558-15.83-34.483L750.417,856l-43.835,25.309,12.8,27.884h-1.336l-12.718-27.7-29.884-4.572L645.6,872.349l-44.041,25.43,5.238,11.412h-1.3l-5.164-11.245-59.806-9.152-35.328,20.4h-1.87l36.293-20.954-7.91-17.232-7.921-17.251L463.985,844.6,420,870l15.852,34.53,29.884,4.572.6.093h-4.9l-25.871-3.958-6.857,3.958h-1.868l7.762-4.481-15.85-34.53-29.886-4.572-29.843-4.567-44.044,25.427,10.433,22.723h-1.3l-10.356-22.555-60.505-9.259-16.036-34.933-60.508-9.259-10.951-23.861Zm117.012,9.649,29.886,4.575,29.843,4.566,44.044-25.43-7.91-17.229-7.921-17.254L310.9,756.218l-43.984,25.394ZM667.1,550.565l15.85,34.53,29.886,4.572,29.843,4.567,43.9-25.342-15.83-34.486-59.809-9.149Zm42.93-25.866L694.2,490.216,634.4,481.064,590.56,506.373l15.852,34.53,29.884,4.572,29.845,4.566Zm33.611,70.058,15.852,34.53,29.884,4.572,29.845,4.567,43.893-25.342L847.29,578.6l-59.806-9.152Zm-1.251.184-29.884-4.575L682.666,585.8l-43.893,25.342,15.83,34.483,59.806,9.155,43.838-25.309ZM681.7,585.278l-15.852-34.53-29.884-4.575-29.843-4.566-43.9,25.342,15.83,34.486,59.809,9.149Zm-76.544-44.195-15.85-34.527-29.884-4.575-29.845-4.567-43.893,25.342,15.831,34.486,59.806,9.152ZM529.868,496.71l29.884,4.572,29.845,4.567,43.9-25.342-15.83-34.483-59.809-9.152-43.835,25.309Zm28.452-60.648,59.808,9.152,43.835-25.309-15.852-34.53L616.228,380.8l-29.843-4.569-43.9,25.345Zm60.714,9.706,15.83,34.486,59.806,9.152L738.506,464.1l-15.85-34.53L692.772,425l-29.845-4.569Zm76.541,44.195,15.831,34.483,59.808,9.152L815.05,508.29,799.2,473.76l-29.884-4.575-29.843-4.566Zm76.544,44.189,15.831,34.486,59.806,9.152,43.838-25.309-15.852-34.53-29.884-4.572-29.845-4.569Zm76.542,44.192,15.83,34.486,59.806,9.152,43.838-25.309-15.852-34.53L922.4,557.572,892.554,553Zm76.544,44.195,15.83,34.483,59.806,9.152,43.838-25.309-15.852-34.53-29.884-4.575L969.1,597.195Zm76.541,44.189,15.831,34.486,59.806,9.152,43.838-25.309-15.852-34.53-29.884-4.575-29.845-4.567Zm-1.371.252-59.806-9.149-43.838,25.309,15.852,34.53,29.884,4.572,29.845,4.567,43.893-25.342Zm-60.711-9.706-15.83-34.483-59.809-9.152L820.19,638.949l15.85,34.53,29.884,4.572,29.845,4.566ZM818.936,639.132l-29.884-4.575-29.845-4.567-43.893,25.342,15.83,34.486,59.809,9.152,43.835-25.312ZM713.943,655.585l-59.806-9.152L610.3,671.745l15.85,34.53,29.884,4.572,29.845,4.567,43.893-25.342Zm-60.711-9.706L637.4,611.393l-59.808-9.152L533.758,627.55l15.852,34.53,29.884,4.575,29.843,4.566ZM532.507,627.734l-29.887-4.572L472.778,618.6l-43.9,25.342,15.83,34.486,59.809,9.149,43.836-25.309Zm-59.441-9.846,29.884,4.575,29.845,4.567,43.893-25.342L560.857,567.2l-59.806-9.152-43.838,25.309ZM500.147,557.5l-15.831-34.486-59.809-9.152-43.835,25.312L396.524,573.7l29.884,4.575,29.845,4.567Zm-75.173-44.444,59.809,9.152,43.835-25.309-15.852-34.53-29.884-4.575-29.843-4.566-43.9,25.342Zm28.353-60.533,29.884,4.572,29.845,4.566,43.893-25.342-15.831-34.483-59.806-9.152-43.838,25.309Zm28.452-60.648,59.806,9.152,43.835-25.309-15.85-34.53-29.884-4.572-29.845-4.566-43.893,25.342Zm28.353-60.533,29.884,4.572,29.845,4.569L613.807,315.1l-15.83-34.483-59.806-9.152L494.28,296.808ZM570.821,341l15.852,34.53,29.884,4.572,29.845,4.566L690.351,359.3l-15.833-34.483-59.806-9.152Zm76.544,44.192,15.85,34.53,29.884,4.572,29.845,4.567,43.948-25.372-15.83-34.483-59.806-9.152Zm76.541,44.192,15.852,34.53,29.884,4.572,29.845,4.566,43.948-25.372L827.6,413.2,767.8,404.045Zm76.544,44.192,15.85,34.53,29.886,4.572,29.842,4.569,43.948-25.375-15.83-34.483-59.806-9.152Zm76.541,44.192,15.852,34.53,29.884,4.572,29.845,4.566,43.948-25.372-15.831-34.483-59.809-9.152Zm76.544,44.192,15.852,34.53,29.881,4.572,29.845,4.566,43.948-25.372-15.83-34.483-59.806-9.152Zm76.541,44.192,15.852,34.53,29.884,4.572,29.845,4.567,43.945-25.372-15.83-34.483-59.806-9.152Zm76.544,44.192,15.85,34.53,29.884,4.572,29.845,4.566,43.948-25.372-15.83-34.483-59.809-9.152Zm75.291,44.376-29.884-4.575-29.845-4.567-43.893,25.345,15.831,34.483,59.806,9.152,43.835-25.309Zm-104.993,16.453-59.809-9.152-43.835,25.312,15.85,34.53,29.884,4.572L1048.854,771l43.9-25.342Zm-104.9,16.343-29.884-4.575-29.845-4.566L868.4,743.717,884.23,778.2l59.809,9.152,43.835-25.306Zm-60.689-9.662-15.852-34.53L865.6,678.75l-29.845-4.567-43.893,25.342,15.83,34.486,59.806,9.149ZM790.487,699.777l-59.809-9.152-43.835,25.309,15.852,34.53,29.884,4.575,29.843,4.567,43.9-25.342ZM685.592,716.118l-29.884-4.572-29.845-4.566-43.9,25.342L597.8,766.8l59.809,9.152,43.835-25.309ZM624.9,706.456l-15.852-34.53-29.884-4.572-29.845-4.566-43.893,25.342,15.83,34.483,59.806,9.152ZM504.055,688.382l-59.809-9.152-43.835,25.309,15.852,34.53,29.884,4.575,29.843,4.564,43.9-25.342ZM399.16,704.722l-29.886-4.572-29.843-4.566-44.044,25.427,7.91,17.232,7.921,17.251,59.808,9.152,43.984-25.394Zm-59.441-9.846,29.884,4.575,29.845,4.567,43.893-25.342-15.83-34.486L367.7,635.038l-43.838,25.309Zm28.452-60.645,59.806,9.149,43.836-25.309-15.85-34.53-29.884-4.572L396.234,574.4l-43.893,25.342Zm27.1-60.352-15.853-34.53-29.884-4.572-29.843-4.566-43.9,25.342,15.831,34.483,59.808,9.152ZM319.98,529.5l29.884,4.575,29.845,4.566L423.6,513.3l-15.831-34.486-59.806-9.152-43.838,25.309Zm28.452-60.645,59.806,9.149L452.076,452.7l-15.852-34.53L406.34,413.6l-29.845-4.567L332.6,434.373Zm28.35-60.533L406.67,412.9l29.842,4.566,43.9-25.342-15.83-34.483-59.808-9.152L360.933,373.8Zm27.081-60.4-15.83-34.483L328.227,304.3,284.389,329.6l15.852,34.53,29.884,4.572,29.845,4.567Zm1.371-.252,59.809,9.152,43.835-25.309-15.852-34.53-29.884-4.572L433.3,287.851,389.4,313.193Zm28.353-60.533,29.884,4.572,29.845,4.569,43.948-25.375-15.831-34.483-59.809-9.152-43.89,25.339ZM538.582,270.69l59.809,9.152,43.89-25.339-15.852-34.53L596.545,215.4,566.7,210.835l-43.948,25.372ZM599.3,280.4l15.83,34.483,59.806,9.152,43.89-25.339-15.852-34.53-29.884-4.572-29.845-4.566Zm76.541,44.192,15.83,34.483,59.808,9.152,43.888-25.339-15.85-34.53-29.884-4.572-29.845-4.566Zm76.544,44.192,15.83,34.483,59.806,9.152,43.89-25.339-15.852-34.53-29.884-4.572-29.845-4.569Zm76.541,44.192,15.831,34.483,59.809,9.152,43.888-25.339-15.85-34.53-29.884-4.572L872.87,387.6Zm76.544,44.192L921.3,491.65,981.1,500.8l43.89-25.339-15.852-34.53-29.884-4.572-29.845-4.569Zm76.541,44.192,15.83,34.483,59.806,9.152,43.89-25.339-15.85-34.53-29.884-4.575-29.845-4.564Zm76.544,44.192,15.83,34.483,59.806,9.152,43.89-25.339-15.852-34.53-29.884-4.572-29.843-4.569Zm76.541,44.192,15.83,34.483,59.806,9.152,43.89-25.339-15.85-34.53-29.884-4.572-29.845-4.569Zm76.544,44.192,15.83,34.483,59.806,9.152,43.89-25.339-15.852-34.53-29.884-4.575-29.843-4.567Zm76.541,44.192,15.831,34.483,59.808,9.152,43.888-25.339-15.85-34.53-29.884-4.575-29.845-4.566Zm-1.319.219-59.806-9.149-43.89,25.339,15.852,34.53,29.884,4.572,29.845,4.566,43.945-25.372Zm-28.405,60.565-29.884-4.575-29.845-4.566-43.893,25.342,15.83,34.486,59.809,9.152,43.835-25.309ZM1153.46,755.365l-59.806-9.149-43.838,25.309,15.852,34.53,29.884,4.572,29.845,4.566,43.893-25.342Zm-104.895,16.341-29.884-4.572-29.845-4.566-43.893,25.342,15.83,34.483,59.806,9.152,43.835-25.306Zm-105,16.456-59.806-9.152-43.835,25.309,15.852,34.53,29.884,4.575,29.843,4.567,43.9-25.345Zm-60.711-9.706-15.83-34.486-59.806-9.149-43.838,25.306,15.852,34.53,29.884,4.575,29.845,4.566ZM762.134,760.31l-29.884-4.572L702.4,751.172l-43.893,25.342L674.342,811l59.806,9.152,43.838-25.309ZM657.14,776.766l-59.808-9.152L553.5,792.923l15.852,34.53,29.884,4.572,29.843,4.569,43.9-25.345Zm-60.714-9.709L580.6,732.574l-59.806-9.152-43.835,25.309,15.85,34.53,29.884,4.572,29.845,4.569ZM475.7,748.914l-29.884-4.572-29.845-4.566L371.931,765.2l7.91,17.229,7.921,17.254,59.806,9.152,43.986-25.394ZM190.372,737.42l15.852,34.53,29.884,4.572,29.845,4.569,44.041-25.427-7.91-17.235-7.921-17.251-59.806-9.152Zm28.474-60.6,7.91,17.232,7.921,17.251,59.806,9.152,43.986-25.394-15.853-34.53-29.884-4.572-29.845-4.566Zm44.332-26.135,29.884,4.575,29.845,4.566L366.8,634.481,350.969,600l-59.809-9.152-43.835,25.309Zm-92.4-78.722,15.852,34.53,29.884,4.572,29.845,4.569,43.893-25.345-15.831-34.483-59.806-9.152Zm28.474-60.6,15.83,34.486L274.891,555l43.838-25.309-15.852-34.527-29.884-4.575-29.845-4.567Zm28.331-60.576,15.852,34.53,29.884,4.572,29.845,4.566,43.893-25.342-15.83-34.483-59.809-9.152Zm44.3-26.118,59.808,9.152,43.835-25.309L359.68,373.98,329.8,369.406l-29.845-4.566-43.893,25.342Zm-92.394-78.722,15.852,34.53,59.806,9.152,43.838-25.309-15.852-34.53-29.884-4.575-29.925-4.578Zm131.932-76.829-59.644-9.128-43.984,25.4,15.861,34.552,29.922,4.577,29.848,4.566,43.893-25.342Zm1.415-.159,15.852,34.53,59.806,9.152,43.838-25.309L416.485,252.8,386.6,248.228l-29.925-4.58Zm132.006-76.818L385.129,183l-43.984,25.4,15.86,34.552,29.925,4.577,29.845,4.569,43.945-25.375Zm1.341-.17L462.04,226.5l59.806,9.152,43.89-25.339-15.852-34.53L520,171.209l-29.922-4.58Zm132.187-76.829-59.844-9.155-43.986,25.394L490.4,165.93l29.925,4.577,29.845,4.569,44.041-25.43Zm76.544,44.195-59.767-9.147L551.138,175.6l15.85,34.53,29.884,4.572,29.845,4.569,44.044-25.43Zm76.541,44.189-59.767-9.144-44.014,25.41,15.852,34.53,29.884,4.572,29.845,4.569,44.041-25.43ZM808,247.718l-59.767-9.147-44.014,25.411,15.85,34.53,29.884,4.572,29.845,4.569,44.044-25.43Zm76.541,44.192-59.767-9.147-44.014,25.41,15.852,34.53,29.884,4.572,29.845,4.569,44.041-25.43ZM961.09,336.1l-59.767-9.144-44.014,25.41,15.85,34.53,29.884,4.572,29.845,4.569,44.044-25.43Zm76.541,44.195-59.767-9.147L933.85,396.558l15.852,34.53,29.884,4.572,29.843,4.569,44.044-25.43Zm76.544,44.189-59.767-9.144-44.014,25.41,15.85,34.53,29.884,4.572,29.845,4.566,44.044-25.427Zm76.541,44.192-59.767-9.144-44.014,25.41,15.852,34.53,29.884,4.572,29.843,4.566,44.044-25.427Zm76.544,44.195-59.767-9.147-44.014,25.41,15.85,34.53,29.884,4.572,29.845,4.567,44.044-25.427Zm76.541,44.189-59.767-9.144-44.014,25.41,15.852,34.53,29.884,4.572,29.843,4.566,44.044-25.427Zm76.544,44.192-59.767-9.144-44.014,25.41,15.85,34.53,29.884,4.572,29.845,4.566,44.041-25.427Zm92.4,78.744-15.863-34.552L1437.12,636.3l-44.014,25.411,15.852,34.53,29.884,4.572,29.922,4.58ZM1380.6,756.9l59.718,9.138,43.984-25.4-15.863-34.552-29.922-4.577-29.845-4.569-43.945,25.375Zm-1.341.167-15.852-34.53-59.809-9.149-43.888,25.339,15.85,34.53,29.884,4.572,29.925,4.58Zm-131.986,76.859,59.644,9.128,43.986-25.394-15.863-34.552-29.922-4.58-29.845-4.566L1231.376,799.3ZM1142.21,850.244l29.886,4.575,29.922,4.578,43.835-25.309L1230,799.557l-59.809-9.149-43.835,25.306Zm-104.895,16.343,59.809,9.149,43.835-25.306L1125.107,815.9l-29.884-4.572-29.845-4.566L1021.485,832.1ZM932.322,883.04l29.884,4.572,29.845,4.569,43.893-25.342-15.83-34.486L960.308,823.2,916.47,848.51Zm-104.895,16.34,59.806,9.152,43.838-25.309-15.852-34.53-29.884-4.572-29.845-4.567L811.6,864.9Zm-76.544-44.192,59.808,9.152,43.835-25.309L838.675,804.5l-29.884-4.572-29.845-4.566-43.893,25.342ZM645.89,871.645l29.884,4.572,29.845,4.566,43.893-25.339-15.83-34.486-59.806-9.152-43.838,25.309Zm-112.964-.828,7.921,17.254,59.806,9.152,43.986-25.394L628.787,837.3,598.9,832.727l-29.845-4.567-44.041,25.427ZM464.3,843.878l59.809,9.152L568.1,827.636l-15.852-34.53-29.881-4.572-29.845-4.566-44.044,25.427,7.91,17.232ZM359.31,860.334l29.884,4.572,29.845,4.569,44.041-25.43-7.91-17.229-7.921-17.254-59.806-9.152L343.46,825.8Zm-105.032,16.45,59.767,9.144,44.014-25.411-15.852-34.53-29.884-4.572-29.845-4.566-44.041,25.427Z" transform="translate(-165.754 -18.84)" fill="url(#i)" style="mix-blend-mode:color-dodge;isolation:isolate"/><path d="M165.754,806.493l11.98,26.1,59.767,9.144,44.014-25.41-15.85-34.53-29.887-4.572-29.843-4.567-40.182,23.2v-1.078l39.217-22.643-15.85-34.53-23.367-3.576v-.749l23.655,3.62,44.044-25.43-7.91-17.229-7.921-17.254-51.869-7.937v-.771l52.187,7.984,43.984-25.394-15.853-34.53-29.884-4.572L186.346,607.2l-20.592,11.889v-1.081l19.629-11.333-15.852-34.53-3.777-.579v-.749l4.067.623L213.714,546.1l-15.831-34.486-32.13-4.915v-.88l32.6,4.989L242.186,485.5l-15.85-34.527-29.884-4.575L166.6,441.828l-.85.491v-3.686l1.141,2.49,29.884,4.572,29.845,4.567,43.893-25.342-15.83-34.486-59.806-9.149L165.754,398.1v-1.078l28.222-16.294-15.9-34.623-12.325-1.887v-.751l12.857,1.966,43.836-25.306L206.4,285.168l45.012-25.986,60.544,9.265,43.838-25.309-16.047-34.955,45.012-25.989,60.546,9.265,43.888-25.339-16.047-34.955,45.012-25.989,61.246,9.372,16.036,34.933,60.505,9.259,16.039,34.936,60.505,9.256,16.036,34.933,60.505,9.259,16.039,34.933,60.505,9.259,16.036,34.933,60.505,9.259,16.039,34.933,60.505,9.259,16.036,34.933,60.505,9.259,16.036,34.933,60.508,9.259,16.036,34.933,60.505,9.259,16.036,34.933,60.508,9.259,16.036,34.933,60.505,9.259,16.036,34.933,60.508,9.259,16.231,35.361-44.5,25.69,16.047,34.955-45.012,25.989-60.546-9.265-43.89,25.339,16.047,34.955-45.012,25.989L1246.74,834.6,1202.9,859.909l16.047,34.955-24.815,14.328h-1.769l25.188-14.541L1201.69,860.1l-29.922-4.58-29.845-4.567-43.893,25.342,15.1,32.9h-1.486l-14.986-32.646-59.808-9.152L993.014,892.7l7.57,16.489h-1.336l-7.487-16.3-29.884-4.572-29.845-4.566L888.138,909.09l.047.1h-2.4l-58.824-9-15.589,9H809.5l16.555-9.558-15.83-34.483L750.417,856l-43.835,25.309,12.8,27.884h-1.336l-12.718-27.7-29.884-4.572L645.6,872.349l-44.041,25.43,5.238,11.412h-1.3l-5.164-11.245-59.806-9.152-35.328,20.4h-1.87l36.293-20.954-7.91-17.232-7.921-17.251L463.985,844.6,420,870l15.852,34.53,29.884,4.572.6.093h-4.9l-25.871-3.958-6.857,3.958h-1.868l7.762-4.481-15.85-34.53-29.886-4.572-29.843-4.567-44.044,25.427,10.433,22.723h-1.3l-10.356-22.555-60.505-9.259-16.036-34.933-60.508-9.259-10.951-23.861Zm117.012,9.649,29.886,4.575,29.843,4.566,44.044-25.43-7.91-17.229-7.921-17.254L310.9,756.218l-43.984,25.394ZM667.1,550.565l15.85,34.53,29.886,4.572,29.843,4.567,43.9-25.342-15.83-34.486-59.809-9.149Zm42.93-25.866L694.2,490.216,634.4,481.064,590.56,506.373l15.852,34.53,29.884,4.572,29.845,4.566Zm33.611,70.058,15.852,34.53,29.884,4.572,29.845,4.567,43.893-25.342L847.29,578.6l-59.806-9.152Zm-1.251.184-29.884-4.575L682.666,585.8l-43.893,25.342,15.83,34.483,59.806,9.155,43.838-25.309ZM681.7,585.278l-15.852-34.53-29.884-4.575-29.843-4.566-43.9,25.342,15.83,34.486,59.809,9.149Zm-76.544-44.195-15.85-34.527-29.884-4.575-29.845-4.567-43.893,25.342,15.831,34.486,59.806,9.152ZM529.868,496.71l29.884,4.572,29.845,4.567,43.9-25.342-15.83-34.483-59.809-9.152-43.835,25.309Zm28.452-60.648,59.808,9.152,43.835-25.309-15.852-34.53L616.228,380.8l-29.843-4.569-43.9,25.345Zm60.714,9.706,15.83,34.486,59.806,9.152L738.506,464.1l-15.85-34.53L692.772,425l-29.845-4.569Zm76.541,44.195,15.831,34.483,59.808,9.152L815.05,508.29,799.2,473.76l-29.884-4.575-29.843-4.566Zm76.544,44.189,15.831,34.486,59.806,9.152,43.838-25.309-15.852-34.53-29.884-4.572-29.845-4.569Zm76.542,44.192,15.83,34.486,59.806,9.152,43.838-25.309-15.852-34.53L922.4,557.572,892.554,553Zm76.544,44.195,15.83,34.483,59.806,9.152,43.838-25.309-15.852-34.53-29.884-4.575L969.1,597.195Zm76.541,44.189,15.831,34.486,59.806,9.152,43.838-25.309-15.852-34.53-29.884-4.575-29.845-4.567Zm-1.371.252-59.806-9.149-43.838,25.309,15.852,34.53,29.884,4.572,29.845,4.567,43.893-25.342Zm-60.711-9.706-15.83-34.483-59.809-9.152L820.19,638.949l15.85,34.53,29.884,4.572,29.845,4.566ZM818.936,639.132l-29.884-4.575-29.845-4.567-43.893,25.342,15.83,34.486,59.809,9.152,43.835-25.312ZM713.943,655.585l-59.806-9.152L610.3,671.745l15.85,34.53,29.884,4.572,29.845,4.567,43.893-25.342Zm-60.711-9.706L637.4,611.393l-59.808-9.152L533.758,627.55l15.852,34.53,29.884,4.575,29.843,4.566ZM532.507,627.734l-29.887-4.572L472.778,618.6l-43.9,25.342,15.83,34.486,59.809,9.149,43.836-25.309Zm-59.441-9.846,29.884,4.575,29.845,4.567,43.893-25.342L560.857,567.2l-59.806-9.152-43.838,25.309ZM500.147,557.5l-15.831-34.486-59.809-9.152-43.835,25.312L396.524,573.7l29.884,4.575,29.845,4.567Zm-75.173-44.444,59.809,9.152,43.835-25.309-15.852-34.53-29.884-4.575-29.843-4.566-43.9,25.342Zm28.353-60.533,29.884,4.572,29.845,4.566,43.893-25.342-15.831-34.483-59.806-9.152-43.838,25.309Zm28.452-60.648,59.806,9.152,43.835-25.309-15.85-34.53-29.884-4.572-29.845-4.566-43.893,25.342Zm28.353-60.533,29.884,4.572,29.845,4.569L613.807,315.1l-15.83-34.483-59.806-9.152L494.28,296.808ZM570.821,341l15.852,34.53,29.884,4.572,29.845,4.566L690.351,359.3l-15.833-34.483-59.806-9.152Zm76.544,44.192,15.85,34.53,29.884,4.572,29.845,4.567,43.948-25.372-15.83-34.483-59.806-9.152Zm76.541,44.192,15.852,34.53,29.884,4.572,29.845,4.566,43.948-25.372L827.6,413.2,767.8,404.045Zm76.544,44.192,15.85,34.53,29.886,4.572,29.842,4.569,43.948-25.375-15.83-34.483-59.806-9.152Zm76.541,44.192,15.852,34.53,29.884,4.572,29.845,4.566,43.948-25.372-15.831-34.483-59.809-9.152Zm76.544,44.192,15.852,34.53,29.881,4.572,29.845,4.566,43.948-25.372-15.83-34.483-59.806-9.152Zm76.541,44.192,15.852,34.53,29.884,4.572,29.845,4.567,43.945-25.372-15.83-34.483-59.806-9.152Zm76.544,44.192,15.85,34.53,29.884,4.572,29.845,4.566,43.948-25.372-15.83-34.483-59.809-9.152Zm75.291,44.376-29.884-4.575-29.845-4.567-43.893,25.345,15.831,34.483,59.806,9.152,43.835-25.309Zm-104.993,16.453-59.809-9.152-43.835,25.312,15.85,34.53,29.884,4.572L1048.854,771l43.9-25.342Zm-104.9,16.343-29.884-4.575-29.845-4.566L868.4,743.717,884.23,778.2l59.809,9.152,43.835-25.306Zm-60.689-9.662-15.852-34.53L865.6,678.75l-29.845-4.567-43.893,25.342,15.83,34.486,59.806,9.149ZM790.487,699.777l-59.809-9.152-43.835,25.309,15.852,34.53,29.884,4.575,29.843,4.567,43.9-25.342ZM685.592,716.118l-29.884-4.572-29.845-4.566-43.9,25.342L597.8,766.8l59.809,9.152,43.835-25.309ZM624.9,706.456l-15.852-34.53-29.884-4.572-29.845-4.566-43.893,25.342,15.83,34.483,59.806,9.152ZM504.055,688.382l-59.809-9.152-43.835,25.309,15.852,34.53,29.884,4.575,29.843,4.564,43.9-25.342ZM399.16,704.722l-29.886-4.572-29.843-4.566-44.044,25.427,7.91,17.232,7.921,17.251,59.808,9.152,43.984-25.394Zm-59.441-9.846,29.884,4.575,29.845,4.567,43.893-25.342-15.83-34.486L367.7,635.038l-43.838,25.309Zm28.452-60.645,59.806,9.149,43.836-25.309-15.85-34.53-29.884-4.572L396.234,574.4l-43.893,25.342Zm27.1-60.352-15.853-34.53-29.884-4.572-29.843-4.566-43.9,25.342,15.831,34.483,59.808,9.152ZM319.98,529.5l29.884,4.575,29.845,4.566L423.6,513.3l-15.831-34.486-59.806-9.152-43.838,25.309Zm28.452-60.645,59.806,9.149L452.076,452.7l-15.852-34.53L406.34,413.6l-29.845-4.567L332.6,434.373Zm28.35-60.533L406.67,412.9l29.842,4.566,43.9-25.342-15.83-34.483-59.808-9.152L360.933,373.8Zm27.081-60.4-15.83-34.483L328.227,304.3,284.389,329.6l15.852,34.53,29.884,4.572,29.845,4.567Zm1.371-.252,59.809,9.152,43.835-25.309-15.852-34.53-29.884-4.572L433.3,287.851,389.4,313.193Zm28.353-60.533,29.884,4.572,29.845,4.569,43.948-25.375-15.831-34.483-59.809-9.152-43.89,25.339ZM538.582,270.69l59.809,9.152,43.89-25.339-15.852-34.53L596.545,215.4,566.7,210.835l-43.948,25.372ZM599.3,280.4l15.83,34.483,59.806,9.152,43.89-25.339-15.852-34.53-29.884-4.572-29.845-4.566Zm76.541,44.192,15.83,34.483,59.808,9.152,43.888-25.339-15.85-34.53-29.884-4.572-29.845-4.566Zm76.544,44.192,15.83,34.483,59.806,9.152,43.89-25.339-15.852-34.53-29.884-4.572-29.845-4.569Zm76.541,44.192,15.831,34.483,59.809,9.152,43.888-25.339-15.85-34.53-29.884-4.572L872.87,387.6Zm76.544,44.192L921.3,491.65,981.1,500.8l43.89-25.339-15.852-34.53-29.884-4.572-29.845-4.569Zm76.541,44.192,15.83,34.483,59.806,9.152,43.89-25.339-15.85-34.53-29.884-4.575-29.845-4.564Zm76.544,44.192,15.83,34.483,59.806,9.152,43.89-25.339-15.852-34.53-29.884-4.572-29.843-4.569Zm76.541,44.192,15.83,34.483,59.806,9.152,43.89-25.339-15.85-34.53-29.884-4.572-29.845-4.569Zm76.544,44.192,15.83,34.483,59.806,9.152,43.89-25.339-15.852-34.53-29.884-4.575-29.843-4.567Zm76.541,44.192,15.831,34.483,59.808,9.152,43.888-25.339-15.85-34.53-29.884-4.575-29.845-4.566Zm-1.319.219-59.806-9.149-43.89,25.339,15.852,34.53,29.884,4.572,29.845,4.566,43.945-25.372Zm-28.405,60.565-29.884-4.575-29.845-4.566-43.893,25.342,15.83,34.486,59.809,9.152,43.835-25.309ZM1153.46,755.365l-59.806-9.149-43.838,25.309,15.852,34.53,29.884,4.572,29.845,4.566,43.893-25.342Zm-104.895,16.341-29.884-4.572-29.845-4.566-43.893,25.342,15.83,34.483,59.806,9.152,43.835-25.306Zm-105,16.456-59.806-9.152-43.835,25.309,15.852,34.53,29.884,4.575,29.843,4.567,43.9-25.345Zm-60.711-9.706-15.83-34.486-59.806-9.149-43.838,25.306,15.852,34.53,29.884,4.575,29.845,4.566ZM762.134,760.31l-29.884-4.572L702.4,751.172l-43.893,25.342L674.342,811l59.806,9.152,43.838-25.309ZM657.14,776.766l-59.808-9.152L553.5,792.923l15.852,34.53,29.884,4.572,29.843,4.569,43.9-25.345Zm-60.714-9.709L580.6,732.574l-59.806-9.152-43.835,25.309,15.85,34.53,29.884,4.572,29.845,4.569ZM475.7,748.914l-29.884-4.572-29.845-4.566L371.931,765.2l7.91,17.229,7.921,17.254,59.806,9.152,43.986-25.394ZM190.372,737.42l15.852,34.53,29.884,4.572,29.845,4.569,44.041-25.427-7.91-17.235-7.921-17.251-59.806-9.152Zm28.474-60.6,7.91,17.232,7.921,17.251,59.806,9.152,43.986-25.394-15.853-34.53-29.884-4.572-29.845-4.566Zm44.332-26.135,29.884,4.575,29.845,4.566L366.8,634.481,350.969,600l-59.809-9.152-43.835,25.309Zm-92.4-78.722,15.852,34.53,29.884,4.572,29.845,4.569,43.893-25.345-15.831-34.483-59.806-9.152Zm28.474-60.6,15.83,34.486L274.891,555l43.838-25.309-15.852-34.527-29.884-4.575-29.845-4.567Zm28.331-60.576,15.852,34.53,29.884,4.572,29.845,4.566,43.893-25.342-15.83-34.483-59.809-9.152Zm44.3-26.118,59.808,9.152,43.835-25.309L359.68,373.98,329.8,369.406l-29.845-4.566-43.893,25.342Zm-92.394-78.722,15.852,34.53,59.806,9.152,43.838-25.309-15.852-34.53-29.884-4.575-29.925-4.578Zm131.932-76.829-59.644-9.128-43.984,25.4,15.861,34.552,29.922,4.577,29.848,4.566,43.893-25.342Zm1.415-.159,15.852,34.53,59.806,9.152,43.838-25.309L416.485,252.8,386.6,248.228l-29.925-4.58Zm132.006-76.818L385.129,183l-43.984,25.4,15.86,34.552,29.925,4.577,29.845,4.569,43.945-25.375Zm1.341-.17L462.04,226.5l59.806,9.152,43.89-25.339-15.852-34.53L520,171.209l-29.922-4.58Zm132.187-76.829-59.844-9.155-43.986,25.394L490.4,165.93l29.925,4.577,29.845,4.569,44.041-25.43Zm76.544,44.195-59.767-9.147L551.138,175.6l15.85,34.53,29.884,4.572,29.845,4.569,44.044-25.43Zm76.541,44.189-59.767-9.144-44.014,25.41,15.852,34.53,29.884,4.572,29.845,4.569,44.041-25.43ZM808,247.718l-59.767-9.147-44.014,25.411,15.85,34.53,29.884,4.572,29.845,4.569,44.044-25.43Zm76.541,44.192-59.767-9.147-44.014,25.41,15.852,34.53,29.884,4.572,29.845,4.569,44.041-25.43ZM961.09,336.1l-59.767-9.144-44.014,25.41,15.85,34.53,29.884,4.572,29.845,4.569,44.044-25.43Zm76.541,44.195-59.767-9.147L933.85,396.558l15.852,34.53,29.884,4.572,29.843,4.569,44.044-25.43Zm76.544,44.189-59.767-9.144-44.014,25.41,15.85,34.53,29.884,4.572,29.845,4.566,44.044-25.427Zm76.541,44.192-59.767-9.144-44.014,25.41,15.852,34.53,29.884,4.572,29.843,4.566,44.044-25.427Zm76.544,44.195-59.767-9.147-44.014,25.41,15.85,34.53,29.884,4.572,29.845,4.567,44.044-25.427Zm76.541,44.189-59.767-9.144-44.014,25.41,15.852,34.53,29.884,4.572,29.843,4.566,44.044-25.427Zm76.544,44.192-59.767-9.144-44.014,25.41,15.85,34.53,29.884,4.572,29.845,4.566,44.041-25.427Zm92.4,78.744-15.863-34.552L1437.12,636.3l-44.014,25.411,15.852,34.53,29.884,4.572,29.922,4.58ZM1380.6,756.9l59.718,9.138,43.984-25.4-15.863-34.552-29.922-4.577-29.845-4.569-43.945,25.375Zm-1.341.167-15.852-34.53-59.809-9.149-43.888,25.339,15.85,34.53,29.884,4.572,29.925,4.58Zm-131.986,76.859,59.644,9.128,43.986-25.394-15.863-34.552-29.922-4.58-29.845-4.566L1231.376,799.3ZM1142.21,850.244l29.886,4.575,29.922,4.578,43.835-25.309L1230,799.557l-59.809-9.149-43.835,25.306Zm-104.895,16.343,59.809,9.149,43.835-25.306L1125.107,815.9l-29.884-4.572-29.845-4.566L1021.485,832.1ZM932.322,883.04l29.884,4.572,29.845,4.569,43.893-25.342-15.83-34.486L960.308,823.2,916.47,848.51Zm-104.895,16.34,59.806,9.152,43.838-25.309-15.852-34.53-29.884-4.572-29.845-4.567L811.6,864.9Zm-76.544-44.192,59.808,9.152,43.835-25.309L838.675,804.5l-29.884-4.572-29.845-4.566-43.893,25.342ZM645.89,871.645l29.884,4.572,29.845,4.566,43.893-25.339-15.83-34.486-59.806-9.152-43.838,25.309Zm-112.964-.828,7.921,17.254,59.806,9.152,43.986-25.394L628.787,837.3,598.9,832.727l-29.845-4.567-44.041,25.427ZM464.3,843.878l59.809,9.152L568.1,827.636l-15.852-34.53-29.881-4.572-29.845-4.566-44.044,25.427,7.91,17.232ZM359.31,860.334l29.884,4.572,29.845,4.569,44.041-25.43-7.91-17.229-7.921-17.254-59.806-9.152L343.46,825.8Zm-105.032,16.45,59.767,9.144,44.014-25.411-15.852-34.53-29.884-4.572-29.845-4.566-44.041,25.427Z" transform="translate(-165.754 -18.84)" fill="url(#j)" style="mix-blend-mode:color-dodge;isolation:isolate"/><ellipse cx="25.873" cy="25.873" rx="25.873" ry="25.873" transform="translate(676.774 699.005)" fill="url(#k)" style="mix-blend-mode:screen;isolation:isolate"/><ellipse cx="25.873" cy="25.873" rx="25.873" ry="25.873" transform="translate(704.142 637.905)" fill="url(#l)" style="mix-blend-mode:screen;isolation:isolate"/><ellipse cx="25.873" cy="25.873" rx="25.873" ry="25.873" transform="translate(627.289 809.638) rotate(-157.363)" fill="url(#m)" style="mix-blend-mode:screen;isolation:isolate"/><ellipse cx="25.873" cy="25.873" rx="25.873" ry="25.873" transform="translate(494.254 670.701)" fill="url(#n)" style="mix-blend-mode:screen;isolation:isolate"/><ellipse cx="25.873" cy="25.873" rx="25.873" ry="25.873" transform="translate(405.706 722.902)" fill="url(#o)" style="mix-blend-mode:screen;isolation:isolate"/><ellipse cx="25.873" cy="25.873" rx="25.873" ry="25.873" transform="translate(700.928 508.292)" fill="url(#l)" style="mix-blend-mode:screen;isolation:isolate"/><ellipse cx="25.873" cy="25.873" rx="25.873" ry="25.873" transform="translate(321.784 417.476)" fill="url(#q)" style="mix-blend-mode:screen;isolation:isolate"/><ellipse cx="25.873" cy="25.873" rx="25.873" ry="25.873" transform="translate(482.249 767.094)" fill="url(#r)" style="mix-blend-mode:screen;isolation:isolate"/><ellipse cx="25.872" cy="25.872" rx="25.872" ry="25.872" transform="translate(332.436 733.613) rotate(-98.533)" fill="url(#s)" style="mix-blend-mode:screen;isolation:isolate"/><ellipse cx="25.873" cy="25.873" rx="25.873" ry="25.873" transform="translate(264.653 538.402)" fill="url(#t)" style="mix-blend-mode:screen;isolation:isolate"/><ellipse cx="18.326" cy="18.326" rx="18.326" ry="18.326" transform="translate(376.778 530.036)" fill="url(#o)" style="mix-blend-mode:screen;isolation:isolate"/><ellipse cx="18.326" cy="18.326" rx="18.326" ry="18.326" transform="translate(263.769 772.29)" fill="url(#v)" style="mix-blend-mode:color-dodge;isolation:isolate"/><ellipse cx="18.326" cy="18.326" rx="18.326" ry="18.326" transform="translate(167.863 562.151)" fill="url(#w)" style="mix-blend-mode:color-dodge;isolation:isolate"/><ellipse cx="18.326" cy="18.326" rx="18.326" ry="18.326" transform="translate(566.148 817.494)" fill="url(#x)" style="mix-blend-mode:color-dodge;isolation:isolate"/><ellipse cx="18.326" cy="18.326" rx="18.326" ry="18.326" transform="translate(243.611 606.134)" fill="url(#y)" style="mix-blend-mode:color-dodge;isolation:isolate"/><ellipse cx="18.326" cy="18.326" rx="18.326" ry="18.326" transform="translate(147.704 397.829)" fill="url(#z)" style="mix-blend-mode:color-dodge;isolation:isolate"/><ellipse cx="18.326" cy="18.326" rx="18.326" ry="18.326" transform="translate(651.523 636.495)" fill="url(#aa)" style="mix-blend-mode:color-dodge;isolation:isolate"/><ellipse cx="18.326" cy="18.326" rx="18.326" ry="18.326" transform="translate(186.627 728.204)" fill="url(#ab)" style="mix-blend-mode:color-dodge;isolation:isolate"/></g><circle cx="18.326" cy="18.326" r="18.326" transform="translate(1060.064 599.846)" fill="url(#d)" style="mix-blend-mode:color-dodge;isolation:isolate"/><circle cx="18.326" cy="18.326" r="18.326" transform="translate(1105.06 489.656)" fill="url(#d)" style="mix-blend-mode:color-dodge;isolation:isolate"/><g transform="matrix(1, 0, 0, 1, 0, 0)" filter="url(#ae)"><path d="M6585.333,2758s-84.944,106.01-84.944,243.639,22.87,172.918,84.944,296.432,83.479,190.122,37.74,299.519-122.684,176.889-122.684,176.889L6428.514,3838H6846.7s246.232-24.537,425.585-215.21,136.352-660.38,136.352-660.38V2758Z" transform="translate(-5492.29 -2758)" fill="#1a0044"/></g></g></g></g></svg>